<svg
	xmlns="http://www.w3.org/2000/svg"
	viewBox="0 -0.5 32 64"
	shape-rendering="crispEdges"
>
	<metadata
		>Made with Pixels to Svg https://codepen.io/shshaw/pen/XbxvNj</metadata
	>
	<path
		stroke="#504844"
		d="M12 1h1M11 2h2M16 2h1M11 3h7M11 4h1M15 4h6M10 5h2M17 5h5M10 6h1M9 7h2M13 7h1M9 8h2M9 9h1M9 10h1M9 11h1M9 12h1M9 13h2M9 14h10M22 14h1M9 15h5M19 15h1M22 15h1M9 16h5M10 17h3M21 17h1M11 18h3M20 18h1M11 19h10M12 20h8"
	></path>
	<path
		stroke="#6d5c51"
		d="M13 1h4M13 2h3M17 2h3M18 3h3M21 4h2M23 8h1M23 9h2M23 10h2M23 11h2M24 12h2M24 13h2M25 14h1M25 15h1"
	></path>
	<path
		stroke="#7b6759"
		d="M17 1h3M21 3h2M23 4h1M23 5h1M23 6h2M23 7h2M24 8h2M25 9h1M25 10h1M25 11h2M26 12h1M26 13h1M26 14h1M26 15h1M26 16h1"
	></path>
	<path stroke="#8f7d72" d="M20 1h1M20 2h2M24 5h1"></path>
	<path
		stroke="#59504a"
		d="M10 4h1M9 5h1M22 5h1M9 6h1M22 6h1M12 7h1M18 7h3M22 7h1M22 8h1M22 9h1M22 10h1M22 11h1M22 12h1M21 13h2M19 14h3M20 15h2M19 16h3M13 17h2M18 17h3M14 18h6"
	></path>
	<path
		stroke="#dac3c5"
		d="M12 4h1M11 6h1M20 6h2M11 7h1M11 8h1M10 10h1M12 12h1M18 12h1M11 13h1"
	></path>
	<path
		stroke="rgba(251,224,225,0.996078431372549)"
		d="M13 4h1M13 6h6M15 15h1M15 17h2"></path>
	<path
		stroke="#fbe0e1"
		d="M14 4h1M12 5h3M12 6h1M19 6h1M21 7h1M12 8h4M17 8h5M11 9h1M15 9h1M17 9h1M21 9h1M11 10h1M15 10h1M17 10h1M21 10h1M11 11h1M15 11h1M21 11h1M11 12h1M13 12h4M19 12h3M12 13h3M17 13h4M16 15h2M14 16h1M18 16h1M17 17h1M7 39h1M26 39h2M6 40h2M26 40h2M6 41h2M26 41h2M7 42h1M27 42h1"
	></path>
	<path stroke="#fce5e5" d="M15 5h1M17 7h1M16 11h1"></path>
	<path stroke="rgba(252,229,229,0.996078431372549)" d="M16 5h1M15 7h1"
	></path>
	<path stroke="#726a65" d="M14 7h1"></path>
	<path
		stroke="#b69fac"
		d="M16 7h1M16 8h1M16 9h1M16 10h1M17 11h1M17 12h1M15 13h2"></path>
	<path
		stroke="rgba(218,195,197,0.996078431372549)"
		d="M10 9h1M10 11h1M10 12h1"></path>
	<path stroke="#ffffff" d="M12 9h1M20 9h1M12 10h1M20 10h1M12 11h1M20 11h1"
	></path>
	<path stroke="#6e7a8f" d="M13 9h1M19 9h1M13 10h1M19 10h1M13 11h1M19 11h1"
	></path>
	<path stroke="#323841" d="M14 9h1M18 9h1M14 10h1M18 10h1M14 11h1M18 11h1"
	></path>
	<path stroke="#bb95aa" d="M14 15h1M15 16h3"></path>
	<path stroke="#a38396" d="M18 15h1"></path>
	<path
		stroke="#355d6e"
		d="M10 20h1M20 20h2M13 21h10M13 22h5M20 22h3M25 22h1M12 23h6M20 23h7M7 24h1M12 24h7M21 24h6M7 25h2M12 25h8M21 25h1M23 25h5M7 26h2M13 26h9M23 26h5M6 27h3M13 27h9M23 27h5M6 28h3M13 28h9M23 28h5M6 29h3M12 29h10M23 29h5M6 30h3M11 30h11M23 30h5M6 31h2M11 31h10M24 31h4M6 32h2M11 32h11M25 32h3M5 33h3M10 33h12M25 33h3M5 34h3M11 34h11M25 34h3M5 35h3M11 35h11M25 35h3M5 36h3M11 36h11M25 36h3M11 37h11M25 37h3M12 38h5M19 38h1M26 38h2M17 39h5"
	></path>
	<path
		stroke="#315363"
		d="M11 20h1M8 21h5M6 22h7M5 23h7M5 24h2M8 24h4M4 25h3M9 25h3M22 25h1M4 26h3M9 26h4M22 26h1M4 27h2M9 27h4M22 27h1M4 28h2M9 28h4M22 28h1M4 29h2M9 29h3M22 29h1M4 30h2M9 30h2M22 30h1M4 31h2M8 31h3M21 31h3M4 32h2M8 32h3M22 32h3M4 33h1M8 33h2M22 33h3M4 34h1M8 34h3M22 34h3M4 35h1M8 35h3M22 35h3M4 36h1M8 36h3M22 36h3M4 37h7M22 37h3M4 38h4M10 38h1M24 38h2M10 39h7"
	></path>
	<path stroke="#537584" d="M23 21h1M18 22h2M23 22h2M18 23h2M19 24h2M20 25h1"
	></path>
	<path stroke="rgba(49,84,99,0.9921568627450981)" d="M9 38h1M9 39h1"></path>
	<path stroke="#345c6c" d="M11 38h1M17 38h2M20 38h2"></path>
	<path stroke="rgba(49,84,99,0.9725490196078431)" d="M22 38h1"></path>
	<path
		stroke="#d9c3c4"
		d="M4 39h3M24 39h2M4 40h2M24 40h2M4 41h2M24 41h2M4 42h3M24 42h3"></path>
	<path stroke="rgba(49,84,99,0.9686274509803922)" d="M22 39h1"></path>
	<path stroke="rgba(54,86,102,0.984313725490196)" d="M9 40h1"></path>
	<path
		stroke="#707888"
		d="M10 40h1M9 41h3M21 41h2M9 42h3M9 43h4M14 43h1M9 44h9M9 45h9M9 46h6M17 46h1M9 47h4M14 47h1M17 47h1M9 48h4M14 48h1M17 48h1M9 49h3M14 49h1M17 49h1M9 50h2M13 50h2M17 50h2M9 51h2M13 51h2M17 51h2M20 51h1M9 52h2M14 52h1M17 52h2M20 52h1M9 53h2M14 53h1M17 53h2M9 54h2M14 54h1M17 54h2M9 55h1M14 55h1M17 55h2M9 56h1M14 56h1M17 56h2M9 57h1M14 57h1M17 57h2M22 57h1M9 58h6M17 58h3M22 58h1M9 59h6M17 59h3M13 60h2M17 60h2"
	></path>
	<path stroke="rgba(112,120,137,0.996078431372549)" d="M11 40h9M21 40h1"
	></path>
	<path stroke="rgba(114,122,140,0.996078431372549)" d="M20 40h1"></path>
	<path stroke="rgba(56,88,103,0.9764705882352941)" d="M22 40h1"></path>
	<path
		stroke="#7f889a"
		d="M12 41h9M12 42h11M13 43h1M15 43h8M18 44h5M18 45h5M18 46h5M13 47h1M18 47h5M13 48h1M18 48h5M12 49h2M18 49h5M11 50h2M19 50h4M11 51h2M19 51h1M21 51h2M11 52h3M19 52h1M21 52h2M11 53h3M19 53h4M11 54h3M19 54h4M10 55h4M19 55h4M10 56h4M19 56h4M10 57h4M19 57h3M20 58h2M20 59h3"
	></path>
	<path stroke="#232527" d="M9 60h4M19 60h3M8 61h6M17 61h5M13 62h1"></path>
	<path
		stroke="#252628"
		d="M22 60h1M7 61h1M22 61h3M7 62h6M14 62h1M17 62h8M7 63h8M17 63h8"
	></path>
	<path stroke="#1a1d22" d="M14 61h1"></path>
</svg>
